<svg width="24" height="24" viewBox="0 0 24 24" fill="none" xmlns="http://www.w3.org/2000/svg">
<path fill-rule="evenodd" clip-rule="evenodd" d="M18 3C19.0544 3 19.9182 3.81588 19.9945 4.85074L20 5V20C20 21.0544 19.1841 21.9182 18.1493 21.9945L18 22H6C4.94564 22 4.08183 21.1841 4.00549 20.1493L4 20V5C4 3.94564 4.81588 3.08183 5.85074 3.00549L6 3H18ZM18 5H6V20H18V5ZM9.5 16C10.3284 16 11 16.6716 11 17.5C11 18.3284 10.3284 19 9.5 19C8.67157 19 8 18.3284 8 17.5C8 16.6716 8.67157 16 9.5 16ZM14.5 16C15.3284 16 16 16.6716 16 17.5C16 18.3284 15.3284 19 14.5 19C13.6716 19 13 18.3284 13 17.5C13 16.6716 13.6716 16 14.5 16ZM9.5 12C10.3284 12 11 12.6716 11 13.5C11 14.3284 10.3284 15 9.5 15C8.67157 15 8 14.3284 8 13.5C8 12.6716 8.67157 12 9.5 12ZM14.5 12C15.3284 12 16 12.6716 16 13.5C16 14.3284 15.3284 15 14.5 15C13.6716 15 13 14.3284 13 13.5C13 12.6716 13.6716 12 14.5 12ZM15.5 6C16.2797 6 16.9204 6.59489 16.9931 7.35554L17 7.5V9.5C17 10.2797 16.4051 10.9204 15.6445 10.9931L15.5 11H8.5C7.7203 11 7.07955 10.4051 7.00687 9.64446L7 9.5V7.5C7 6.7203 7.59489 6.07955 8.35554 6.00687L8.5 6H15.5ZM15 8H9V9H15V8Z" fill="black"/>
</svg>
