<svg xmlns="http://www.w3.org/2000/svg" xmlns:xlink="http://www.w3.org/1999/xlink" viewBox="0 0 280.31 118.88"><defs><style>.cls-1{isolation:isolate;}.cls-2{fill:#005cb9;}.cls-3{fill:#0a2240;}.cls-10,.cls-4,.cls-5,.cls-6,.cls-8{mix-blend-mode:multiply;}.cls-5{fill:url(#linear-gradient);}.cls-6{fill:url(#linear-gradient-2);}.cls-7{fill:url(#linear-gradient-3);}.cls-8{fill:url(#linear-gradient-4);}.cls-9{fill:url(#linear-gradient-5);}.cls-10{fill:url(#Nueva_muestra_de_degradado_1);}.cls-11{fill:url(#linear-gradient-6);}</style><linearGradient id="linear-gradient" x1="54.15" y1="94.52" x2="62.78" y2="86.04" gradientUnits="userSpaceOnUse"><stop offset="0" stop-color="#00aae3"/><stop offset="1" stop-color="#005ca8"/></linearGradient><linearGradient id="linear-gradient-2" x1="54.08" y1="102.12" x2="62.67" y2="93.67" xlink:href="#linear-gradient"/><linearGradient id="linear-gradient-3" x1="43.23" y1="111.4" x2="58.42" y2="96.48" xlink:href="#linear-gradient"/><linearGradient id="linear-gradient-4" x1="23.72" y1="117.12" x2="50.89" y2="90.42" xlink:href="#linear-gradient"/><linearGradient id="linear-gradient-5" x1="12.91" y1="103.75" x2="40.18" y2="76.95" xlink:href="#linear-gradient"/><linearGradient id="Nueva_muestra_de_degradado_1" x1="13.3" y1="79.67" x2="40.46" y2="52.98" gradientUnits="userSpaceOnUse"><stop offset="0" stop-color="#00aae3"/><stop offset="1" stop-color="#005ca8"/></linearGradient><linearGradient id="linear-gradient-6" x1="26.72" y1="70.77" x2="74.71" y2="23.61" xlink:href="#linear-gradient"/></defs><title>Exeltis_Colorvector</title><g class="cls-1"><g id="Capa_2" data-name="Capa 2"><g id="Capa_1-2" data-name="Capa 1"><path class="cls-2" d="M105.56,112.89a2.17,2.17,0,0,1-1.13.32c-.86,0-1.22-.4-1.63-1.11l-1.65-2.89h-1.7v3.91h-1.7V104h-1v-1.21H101a4.92,4.92,0,0,1,3,.7,2.77,2.77,0,0,1,1.11,2.39,2.93,2.93,0,0,1-2.21,3.12l1.52,2.68a.61.61,0,0,0,.54.38,1.49,1.49,0,0,0,.7-.23Zm-2.71-8.41a3,3,0,0,0-2-.5H99.45v4.1h1.67c1.61,0,2.24-.8,2.24-2.11A2,2,0,0,0,102.85,104.48Z"/><path class="cls-2" d="M113.17,109.47a1.08,1.08,0,0,1-.77.21h-4.22a2.27,2.27,0,0,0,2.37,2.42,4.66,4.66,0,0,0,2.52-.77l-.07,1.23a5.08,5.08,0,0,1-2.71.7c-2.47,0-3.75-1.63-3.75-4.07s1.36-4.15,3.54-4.15,3.31,1.47,3.31,3.69A1,1,0,0,1,113.17,109.47Zm-3.13-3.3c-1,0-1.73.72-1.86,2.45h3.53a.14.14,0,0,0,.15-.16C111.86,107.07,111.25,106.17,110,106.17Z"/><path class="cls-2" d="M119.16,112.85a3.15,3.15,0,0,1-1.59.41,2.23,2.23,0,0,1-1.73-.67,2.58,2.58,0,0,1-.44-1.76v-4.47h-1.21v-1.17h1.21v-2l1.59-.48v2.51h1.88v1.17H117v4.37c0,.91.23,1.36,1,1.36a2.08,2.08,0,0,0,1.19-.38Z"/><path class="cls-2" d="M127.15,113.12h-1.61v-4.86a2.12,2.12,0,0,0-.36-1.51,1.55,1.55,0,0,0-1.25-.47,1.73,1.73,0,0,0-1.36.54,2.53,2.53,0,0,0-.43,1.72v4.58h-1.6V101.93h1.6v3.84a3,3,0,0,1,2-.73,3,3,0,0,1,2.37.88,3.09,3.09,0,0,1,.59,2.09Z"/><path class="cls-2" d="M131.82,112.87a2,2,0,0,1-1.14.33,1.36,1.36,0,0,1-1.08-.41,1.74,1.74,0,0,1-.3-1.19v-5.24h-.93v-1.17h2.53v6.37c0,.38.12.53.4.53a1.22,1.22,0,0,0,.59-.2ZM130,103.93a1,1,0,0,1-.95-1A.94.94,0,0,1,130,102a1,1,0,0,1,1,.95A1,1,0,0,1,130,103.93Z"/><path class="cls-2" d="M140,113.12h-1.6v-4.86a2.12,2.12,0,0,0-.36-1.51,1.57,1.57,0,0,0-1.26-.47,1.75,1.75,0,0,0-1.36.54,2.59,2.59,0,0,0-.42,1.72v4.58h-1.6v-6.76h-.94v-1.17h1.9l.3.93A2.8,2.8,0,0,1,137,105a2.6,2.6,0,0,1,3,3Z"/><path class="cls-2" d="M148.84,112.92a1.84,1.84,0,0,1-1,.28,1.7,1.7,0,0,1-1.6-1l-1.66-2.89h-1v3.81H142v-10h-.93v-1.18h2.54v6.18h1l1.88-2.92h1.64l-2.23,3.46,1.69,2.91c.23.41.41.54.69.54a1.06,1.06,0,0,0,.57-.16Z"/><path class="cls-2" d="M152.82,112.87a2,2,0,0,1-1.15.33,1.38,1.38,0,0,1-1.08-.41,1.8,1.8,0,0,1-.29-1.19v-5.24h-.93v-1.17h2.53v6.37c0,.38.11.53.39.53a1.19,1.19,0,0,0,.59-.2ZM151,103.93a1,1,0,0,1-.95-1A.94.94,0,0,1,151,102a1,1,0,0,1,1,.95A1,1,0,0,1,151,103.93Z"/><path class="cls-2" d="M161,113.12h-1.6v-4.86a2.12,2.12,0,0,0-.36-1.51,1.59,1.59,0,0,0-1.26-.47,1.73,1.73,0,0,0-1.36.54,2.53,2.53,0,0,0-.43,1.72v4.58h-1.6v-6.76h-.93v-1.17h1.9l.29.93A2.82,2.82,0,0,1,158,105a3,3,0,0,1,2.37.88A3.09,3.09,0,0,1,161,108Z"/><path class="cls-2" d="M169.47,113a3.54,3.54,0,0,1-.72,2.65,3.75,3.75,0,0,1-2.86,1,5.92,5.92,0,0,1-2.65-.6l.07-1.26a5.15,5.15,0,0,0,2.5.7,2.2,2.2,0,0,0,1.6-.54,2.59,2.59,0,0,0,.46-1.86v-.67a2.63,2.63,0,0,1-2.05.8c-2.07,0-3.28-1.33-3.28-3.71a4.48,4.48,0,0,1,1.27-3.34,4.3,4.3,0,0,1,3.06-1.06,7.84,7.84,0,0,1,2.6.47Zm-1.6-6.64a3.45,3.45,0,0,0-1-.18c-1.67,0-2.68,1.12-2.68,3.19,0,1.7.63,2.68,1.93,2.68a1.77,1.77,0,0,0,1.32-.52,2.05,2.05,0,0,0,.46-1.49Z"/><path class="cls-2" d="M182.09,113.12h-1.6v-4.86a2.12,2.12,0,0,0-.36-1.51,1.57,1.57,0,0,0-1.26-.47,1.73,1.73,0,0,0-1.36.54,2.54,2.54,0,0,0-.42,1.72v4.58h-1.61V101.93h1.61v3.84a3,3,0,0,1,2-.73,3,3,0,0,1,2.37.88,3.09,3.09,0,0,1,.59,2.09Z"/><path class="cls-2" d="M190.23,109.47a1.08,1.08,0,0,1-.77.21h-4.22a2.28,2.28,0,0,0,2.37,2.42,4.63,4.63,0,0,0,2.52-.77l-.06,1.23a5.12,5.12,0,0,1-2.72.7c-2.47,0-3.74-1.63-3.74-4.07S185,105,187.14,105s3.32,1.47,3.32,3.69A1,1,0,0,1,190.23,109.47Zm-3.12-3.3c-1,0-1.74.72-1.87,2.45h3.53a.14.14,0,0,0,.15-.16C188.92,107.07,188.32,106.17,187.11,106.17Z"/><path class="cls-2" d="M198.88,112.87a1.9,1.9,0,0,1-1.13.33,1.2,1.2,0,0,1-1.26-.79,2.66,2.66,0,0,1-2.08.85,2.54,2.54,0,0,1-2.82-2.65c0-1.79,1.22-2.73,3.15-2.73a5.49,5.49,0,0,1,1.62.27v-.23a1.76,1.76,0,0,0-.34-1.26,1.87,1.87,0,0,0-1.49-.51,4.48,4.48,0,0,0-2.19.59v-1.16a5.26,5.26,0,0,1,2.42-.54,3.53,3.53,0,0,1,2.58.85,2.65,2.65,0,0,1,.62,1.94v3.73c0,.38.12.53.4.53a1.15,1.15,0,0,0,.58-.2Zm-2.52-3.66A5.19,5.19,0,0,0,195,109c-1.25,0-1.76.65-1.76,1.55a1.45,1.45,0,0,0,1.5,1.62,1.75,1.75,0,0,0,1.28-.49,1.81,1.81,0,0,0,.39-1.29Z"/><path class="cls-2" d="M202.81,112.87a2,2,0,0,1-1.14.33,1.35,1.35,0,0,1-1.08-.41,1.74,1.74,0,0,1-.3-1.19v-8.49h-.93v-1.18h2.53v9.63c0,.38.12.53.4.53a1.22,1.22,0,0,0,.59-.2Z"/><path class="cls-2" d="M208.31,112.85a3.15,3.15,0,0,1-1.59.41,2.23,2.23,0,0,1-1.73-.67,2.58,2.58,0,0,1-.44-1.76v-4.47h-1.21v-1.17h1.21v-2l1.58-.48v2.51H208v1.17h-1.86v4.37c0,.91.23,1.36,1,1.36a2.08,2.08,0,0,0,1.19-.38Z"/><path class="cls-2" d="M216.3,113.12h-1.61v-4.86a2.12,2.12,0,0,0-.36-1.51,1.56,1.56,0,0,0-1.26-.47,1.72,1.72,0,0,0-1.35.54,2.53,2.53,0,0,0-.43,1.72v4.58h-1.6V101.93h1.6v3.84a3,3,0,0,1,2.05-.73,2.6,2.6,0,0,1,3,3Z"/><path class="cls-2" d="M222.88,107.72c-.23-1-.66-1.54-1.53-1.54-1.34,0-1.89,1.25-1.89,2.86,0,2.07.75,3.06,2.29,3.06a4.27,4.27,0,0,0,2.32-.75l-.07,1.23a4.72,4.72,0,0,1-2.51.68c-2.34,0-3.65-1.45-3.65-4.1s1.34-4.12,3.5-4.12a2.83,2.83,0,0,1,3,2.35Z"/><path class="cls-2" d="M232.65,112.87a1.92,1.92,0,0,1-1.13.33,1.18,1.18,0,0,1-1.26-.79,2.66,2.66,0,0,1-2.08.85,2.54,2.54,0,0,1-2.83-2.65c0-1.79,1.23-2.73,3.16-2.73a5.61,5.61,0,0,1,1.62.27v-.23a1.71,1.71,0,0,0-.35-1.26,1.83,1.83,0,0,0-1.48-.51,4.55,4.55,0,0,0-2.2.59v-1.16a5.29,5.29,0,0,1,2.42-.54,3.56,3.56,0,0,1,2.59.85,2.69,2.69,0,0,1,.62,1.94v3.73c0,.38.11.53.39.53a1.19,1.19,0,0,0,.59-.2Zm-2.52-3.66a5.19,5.19,0,0,0-1.41-.21c-1.26,0-1.77.65-1.77,1.55a1.45,1.45,0,0,0,1.51,1.62,1.73,1.73,0,0,0,1.27-.49,1.82,1.82,0,0,0,.4-1.29Z"/><path class="cls-2" d="M238,106.43a3.24,3.24,0,0,0-.56-.05,1.58,1.58,0,0,0-1.29.57,2.68,2.68,0,0,0-.44,1.77v4.4h-1.6v-6.76h-.94v-1.17h2l.29,1.09a2.33,2.33,0,0,1,2.13-1.24,1.33,1.33,0,0,1,.44,0Z"/><path class="cls-2" d="M245.28,109.47a1.08,1.08,0,0,1-.77.21h-4.22a2.27,2.27,0,0,0,2.37,2.42,4.66,4.66,0,0,0,2.52-.77l-.07,1.23a5.08,5.08,0,0,1-2.71.7c-2.47,0-3.75-1.63-3.75-4.07S240,105,242.19,105s3.31,1.47,3.31,3.69A1,1,0,0,1,245.28,109.47Zm-3.13-3.3c-1,0-1.73.72-1.86,2.45h3.53a.14.14,0,0,0,.15-.16C244,107.07,243.36,106.17,242.15,106.17Z"/><polygon class="cls-3" points="125.25 84.97 124.6 90.31 96.42 90.31 96.42 44.69 123.67 44.69 123.67 50.02 103.92 50.02 103.92 64.58 119.85 64.58 119.85 69.77 103.92 69.77 103.92 84.97 125.25 84.97"/><path class="cls-3" d="M159.76,90.17a7.61,7.61,0,0,1-4,1.09c-3,0-6.16-1.82-8.25-5.21l-5.34-8.72-8.57,13h-6.78L139,72.43,128.44,55.35h7.49l7.21,11.82,7.72-11.82h6.49L146.24,72.08l7.43,12.1a5.44,5.44,0,0,0,3.86,2.17,4.51,4.51,0,0,0,2.45-.71Z"/><path class="cls-3" d="M209.53,89.23a8.59,8.59,0,0,1-5,1.44,6,6,0,0,1-4.75-1.8c-1-1.08-1.31-2.75-1.31-5.27V49.77h-4.1V44.58H205.5V83.46c0,1.66.5,2.31,1.73,2.31a5.39,5.39,0,0,0,2.59-.86Z"/><path class="cls-3" d="M231.34,89.16a13.91,13.91,0,0,1-7,1.79c-3.31,0-6.2-1.15-7.64-3s-1.94-4-1.94-7.78V44.52h7V55.35h10.17l-2,5.19h-8.11V79.79c0,4,1,6,4.4,6a9.12,9.12,0,0,0,5.26-1.66Z"/><path class="cls-3" d="M250.66,89.23a8.59,8.59,0,0,1-5,1.44,6,6,0,0,1-4.76-1.8c-.94-1.09-1.3-2.75-1.3-5.27V60.54h-6.1l2-5.19h11.16V83.46c0,1.66.51,2.31,1.73,2.31a5.36,5.36,0,0,0,2.6-.86Zm-8-39.43a4.19,4.19,0,0,1-4.18-4.25,4.13,4.13,0,0,1,4.18-4.18,4.19,4.19,0,0,1,4.25,4.18,4.25,4.25,0,0,1-4.25,4.25"/><path class="cls-3" d="M267,91a29.11,29.11,0,0,1-11.54-2.3L256,83a21.77,21.77,0,0,0,10.74,2.88c4,0,7.13-1.51,7.13-4.61,0-3.32-2.38-4.26-8.93-6.42-5.48-1.8-9.37-4-9.37-9.87,0-6.42,5.54-10.31,13.41-10.31a27,27,0,0,1,9,1.45v5.47a24,24,0,0,0-8.79-1.87c-4.32,0-7,1.87-7,4.54s2.38,3.82,7.93,5.69c6.55,2.17,10.23,4.4,10.23,10.52S275.48,91,267,91"/><path class="cls-3" d="M190.63,74.4a4.49,4.49,0,0,0,1-3.24c0-9.8-5.55-16.29-14.63-16.29-9.59,0-15.57,7-15.57,18.31,0,10.73,5.62,17.94,16.5,17.94,4.26,0,9.08-1.08,12-3.1l.29-5.4A20.79,20.79,0,0,1,179.1,86c-5.68,0-9.71-3.29-10.39-10.09a24.34,24.34,0,0,1,0-6.44c.81-6.79,3.87-9.64,8.1-9.64,5.34,0,8,4,8,10.09,0,.43-.11.9-1,1.31,0,0-8.37,2.77-15.9,2.71-1.63,0-.55,5.35.79,5.37,5.37.08,15.71-2.24,18.23-3.13,2.19-.77,3-1.14,3.62-1.79"/><g class="cls-4"><path class="cls-5" d="M57.5,94.82a12.55,12.55,0,0,0,9.37-4.52,12.55,12.55,0,0,0-9.37-4.52c-3.39,0-5.44,1.81-6.71,4.52C52.06,93,54.11,94.82,57.5,94.82Z"/></g><path class="cls-6" d="M52.87,100.89A16.68,16.68,0,0,0,66,105.46a16.68,16.68,0,0,0-4.57-13.09c-3.2-3.2-6.83-3.42-10.58-2.06C49.45,94.06,49.67,97.69,52.87,100.89Z"/><g class="cls-4"><path class="cls-7" d="M42.77,102.22a22.3,22.3,0,0,0,8,16.66,22.3,22.3,0,0,0,8-16.66c0-6-3.21-9.67-8-11.92C46,92.55,42.77,96.19,42.77,102.22Z"/></g><path class="cls-8" d="M32,94c-5.69,5.68-9.19,15.24-8.13,23.27,8,1.06,17.59-2.44,23.27-8.12S53.22,97,50.8,90.32C44.12,87.9,37.67,88.31,32,94Z"/><g class="cls-4"><path class="cls-9" d="M29.61,76C18.89,76,6.58,81.74,0,90.31c6.58,8.57,18.89,14.28,29.61,14.28S46.79,98.88,50.8,90.31C46.79,81.74,40.32,76,29.61,76Z"/></g><path class="cls-10" d="M44.28,56.87C34.18,46.77,17.18,40.53,2.9,42.41,1,56.7,7.25,73.69,17.35,83.79S38.93,94.61,50.8,90.31C55.1,78.45,54.38,67,44.28,56.87Z"/><g class="cls-4"><path class="cls-11" d="M76.18,52.63C76.18,33.59,66,11.69,50.8,0,35.56,11.69,25.42,33.59,25.42,52.63S35.56,83.18,50.8,90.31C66,83.18,76.18,71.68,76.18,52.63Z"/></g></g></g></g></svg>